<?xml version="1.0" encoding="UTF-8"?>
<svg version="1.1" xmlns="http://www.w3.org/2000/svg" width="343" height="147">
<path d="M0 0 C113.19 0 226.38 0 343 0 C343 23.1 343 46.2 343 70 C336 71 336 71 334.1875 69.9375 C331.24403766 65.13500881 330.52640206 59.7445412 329.66015625 54.26953125 C328.90591961 51.67656385 328.16616882 50.59338379 326 49 C322.91004903 48.91776634 322.91004903 48.91776634 320 50 C317.22123442 54.09096044 317.23103175 59.02543302 316.66015625 63.80859375 C315.96540295 67.16725318 315.07490135 69.2797944 313 72 C309.8125 72.8125 309.8125 72.8125 307 73 C305.24061224 70.28094619 303.97406945 67.91734636 303 64.8125 C302.21262767 61.70976172 302.21262767 61.70976172 299 60 C294.17163986 60.17145444 294.17163986 60.17145444 290.125 62.5625 C286.92428234 69.49738827 288.29621846 75.18656972 289.86816406 82.41894531 C291.23197645 88.79085564 292.06667807 94.11996921 289.75 100.375 C287.96789609 103.04815587 286.85028828 104.53413746 284 106 C280.52484004 106.50679416 278.7067834 106.39059083 275.625 104.6875 C272.43970594 99.41951366 273.65451386 92.8203234 274.625 86.9375 C275.35726677 79.2486989 273.48234511 71.37196119 269 65 C265.90388616 62.24042028 264.21583329 61.05173759 260.0625 60.875 C254.82340577 62.79956523 251.29910992 66.35700804 247.875 70.6875 C244.74153382 74.55210829 242.17553656 75.76090782 237.3125 76.75 C231.95418645 76.60765391 228.88271426 72.76132163 225.296875 69.1640625 C221.40150605 65.49393598 218.59222586 64.50637056 213.11376953 64.6484375 C209.33680098 65.27662354 206.53274021 67.34594568 203.4375 69.5 C198.46835338 72.93660607 195.29968252 74.72863798 189 74 C183.37632516 71.45343026 178.88088342 67.62296503 174.13671875 63.70703125 C169.71082333 60.17116965 165.47576708 60.66369305 160 61 C156.95858572 61.76035357 155.60751281 62.13669232 153.8125 64.6875 C153.544375 65.450625 153.27625 66.21375 153 67 C152.443125 68.5159375 152.443125 68.5159375 151.875 70.0625 C150.25960337 75.97714121 150.59271913 82.30176426 151.5 88.3125 C151.99369242 91.95348161 152.17373016 95.45260709 152.25 99.125 C152.28867187 100.89230469 152.28867187 100.89230469 152.328125 102.6953125 C151.90142851 106.99275574 150.2175172 109.37664374 147.6875 112.75 C145.12814948 114.6458152 143.16489173 114.8758866 140 115 C136.32014915 113.77338305 134.49184457 112.63939794 132.125 109.5625 C129.46364311 101.13486984 130.86222226 93.75894309 133.5 85.5625 C136.20341508 77.12362644 138.21429993 68.7566443 134.3125 60.375 C130.37823188 56.25516963 130.37823188 56.25516963 125.0078125 54.90625 C121.6669104 55.15100473 119.50128825 55.51488233 117.0625 57.875 C113.83532344 64.32935313 114.88825227 71.12397573 115.6875 78.0625 C116.1863426 83.64953713 115.61897295 87.03298233 113 92 C110.66872026 94.57244661 109.42907404 94.92848766 106 95.5 C103 95 103 95 100.6875 92.6875 C97.94755007 88.32387604 97.70305457 85.08974882 98 80 C98.85833697 76.54178523 100.09781228 73.21994105 101.31054688 69.87304688 C102.79950736 65.50682753 103.3080842 62.45525709 102 58 C99.9575649 54.95726583 99.9575649 54.95726583 97 53 C93.83975058 52.58225893 93.83975058 52.58225893 91 54 C88.1647449 58.09536848 87.09283086 62.85953922 85.84375 67.6328125 C84.92293661 70.21620563 83.79821008 71.93964676 82 74 C79.59274984 75.08714523 78.49398668 75.15104593 75.96875 74.37890625 C73.11048398 72.3769858 73.08628422 70.4288332 72.4375 67.0625 C71.51007017 61.77202295 71.51007017 61.77202295 68 58 C63.42841775 56.9507844 61.10900847 56.60243093 56.6875 58.1875 C52.95933475 60.70184401 51.41405376 62.75783872 50 67 C49.96227458 69.95270454 49.98080731 72.88131578 50.04296875 75.83203125 C50.06536218 77.61782737 50.08681702 79.40363547 50.10742188 81.18945312 C50.14447379 84.00073619 50.18747695 86.81140814 50.24682617 89.62231445 C50.30148164 92.33814235 50.33045789 95.05328942 50.35546875 97.76953125 C50.37925095 98.60410355 50.40303314 99.43867584 50.42753601 100.29853821 C50.45598512 106.67126153 48.68104331 110.22650692 44.1875 114.875 C40.88560521 116.57311732 38.66155273 116.50504176 35 116 C30.627343 113.47731327 28.76824231 111.23903067 27.0625 106.5 C25.74855018 101.33587165 26.10636898 96.70708664 26.66015625 91.44921875 C27.01872937 87.8099077 27.18450431 84.21870073 27.25 80.5625 C27.27578125 79.45003906 27.3015625 78.33757812 27.328125 77.19140625 C26.95404047 73.55298888 25.74167709 71.18543572 24 68 C24 67.34 24 66.68 24 66 C17.75985739 63.43994149 11.90695063 62.81568678 5.625 65.375 C3.72837606 66.54910054 1.85599341 67.76267106 0 69 C0 46.23 0 23.46 0 0 Z " fill="#40200A" transform="translate(0,0)"/>
<path d="M0 0 C0.99 0.33 1.98 0.66 3 1 C3.625 3.8125 3.625 3.8125 4 7 C3.01 8.485 3.01 8.485 2 10 C1.83300768 13.12521833 1.83300768 13.12521833 2 16 C1.02933594 16.36738281 1.02933594 16.36738281 0.0390625 16.7421875 C-2.1679005 17.78749091 -2.1679005 17.78749091 -2.5390625 19.8828125 C-2.56742188 20.62273437 -2.59578125 21.36265625 -2.625 22.125 C-2.82686583 25.27915364 -3.21422451 28.03656827 -4.125 31.0625 C-5.47315921 36.10300569 -4.9952377 40.65826423 -2.9375 45.5 C-2.628125 45.995 -2.31875 46.49 -2 47 C-3.32 46.67 -4.64 46.34 -6 46 C-4.29171079 48.10633718 -3.47851584 48.93801608 -0.73828125 49.29296875 C0.46248047 49.24076172 0.46248047 49.24076172 1.6875 49.1875 C2.49574219 49.16042969 3.30398437 49.13335937 4.13671875 49.10546875 C5.05904297 49.05326172 5.05904297 49.05326172 6 49 C5.67 49.66 5.34 50.32 5 51 C1.3895326 52.09153666 -0.58710858 52.13763047 -4.1875 50.9375 C-7.75589982 48.47926901 -8.68856167 47.15288805 -10 43 C-11.16389689 34.8527218 -9.31801515 27.91592851 -6.8605957 20.24707031 C-5.04806232 14.5150716 -4.14323571 9.02892109 -4 3 C-2.68 2.67 -1.36 2.34 0 2 C0 1.34 0 0.68 0 0 Z " fill="#382113" transform="translate(141,63)"/>
<path d="M0 0 C3 1 3 1 4 3 C4.99 3 5.98 3 7 3 C7 2.34 7 1.68 7 1 C8.32 0.67 9.64 0.34 11 0 C11 0.99 11 1.98 11 3 C12.32 2.67 13.64 2.34 15 2 C15.67901044 4.81001195 16.34333172 7.62225661 17 10.4375 C17.19078125 11.22060547 17.3815625 12.00371094 17.578125 12.81054688 C19.1068434 19.4440928 20.15801914 25.87334833 17.75 32.375 C15.96789609 35.04815587 14.85028828 36.53413746 12 38 C8.9375 38.375 8.9375 38.375 6 38 C4.125 36.5 4.125 36.5 3 35 C3.66 35 4.32 35 5 35 C4.82799072 34.42024414 4.65598145 33.84048828 4.47875977 33.24316406 C3.72396619 29.70668095 4.4344533 26.2869495 4.9375 22.75 C5.03740234 22.00492188 5.13730469 21.25984375 5.24023438 20.4921875 C5.48680156 18.66054558 5.74250391 16.83013749 6 15 C6.66 15.66 7.32 16.32 8 17 C7.87109375 19.609375 7.87109375 19.609375 7.4375 22.75 C6.88646765 27.95976042 7.02060783 30.70967527 10 35 C10.33 35 10.66 35 11 35 C11.28875 34.360625 11.5775 33.72125 11.875 33.0625 C13 31 13 31 15 30 C15.02717692 27.93757383 15.0464758 25.87504297 15.0625 23.8125 C15.07410156 22.66394531 15.08570313 21.51539062 15.09765625 20.33203125 C15.01192832 17.40699414 14.67849023 14.83683709 14 12 C13.01 12 12.02 12 11 12 C10.34 10.35 9.68 8.7 9 7 C6.95163118 7.56362302 6.95163118 7.56362302 5 9 C4.18415432 12.05908413 4.18415432 12.05908413 4 15 C3.67 15 3.34 15 3 15 C2 10 1 5 0 0 Z " fill="#44230E" transform="translate(272,68)"/>
<path d="M0 0 C0.99 0.33 1.98 0.66 3 1 C3 1.66 3 2.32 3 3 C3.66 3.66 4.32 4.32 5 5 C4.0925 5.721875 3.185 6.44375 2.25 7.1875 C0.1473016 8.92579634 -1.35402357 10.45057545 -3.0625 12.625 C-5.63366175 15.77674667 -7.85789695 17.64939631 -11.95703125 18.3203125 C-15.50032049 18.51752711 -17.61696093 18.26158765 -20.5625 16.25 C-22 14 -22 14 -21.75 11.75 C-21.5025 11.1725 -21.255 10.595 -21 10 C-20.34 10 -19.68 10 -19 10 C-19 10.66 -19 11.32 -19 12 C-18.34 12 -17.68 12 -17 12 C-17 12.66 -17 13.32 -17 14 C-16.01 14 -15.02 14 -14 14 C-14 14.66 -14 15.32 -14 16 C-13.01 16.33 -12.02 16.66 -11 17 C-11.33 16.01 -11.66 15.02 -12 14 C-11.34 13.566875 -10.68 13.13375 -10 12.6875 C-9.01 11.8521875 -9.01 11.8521875 -8 11 C-8 10.01 -8 9.02 -8 8 C-6.33333333 8 -4.66666667 8 -3 8 C-2.87625 6.865625 -2.7525 5.73125 -2.625 4.5625 C-2.315625 2.7990625 -2.315625 2.7990625 -2 1 C-1.34 0.67 -0.68 0.34 0 0 Z " fill="#3D2112" transform="translate(251,58)"/>
<path d="M0 0 C0.99 0 1.98 0 3 0 C2.9278125 0.88042969 2.855625 1.76085937 2.78125 2.66796875 C2.6884375 3.82941406 2.595625 4.99085937 2.5 6.1875 C2.4071875 7.33605469 2.314375 8.48460938 2.21875 9.66796875 C2.0354038 12.46072426 1.95786363 15.20319812 2 18 C5.96 17.505 5.96 17.505 10 17 C10 17.66 10 18.32 10 19 C10.66 18.67 11.32 18.34 12 18 C10.25 21.875 10.25 21.875 8 23 C5.125 23.375 5.125 23.375 2 23 C-1.47128818 19.52871182 -2.86531958 16.71717535 -3.25 11.8125 C-2.95290069 7.28173546 -1.75485469 4.1677799 0 0 Z " fill="#462F27" transform="translate(101,72)"/>
<path d="M0 0 C0.33 0 0.66 0 1 0 C1.02578125 1.12277344 1.0515625 2.24554688 1.078125 3.40234375 C0.97591138 15.52220502 0.97591138 15.52220502 6 26 C8.98201972 27.27876646 11.79764978 27.65379998 15 28 C15.66 28.33 16.32 28.66 17 29 C13.23124125 31.51250583 11.46849866 31.53016086 7 31 C2.627343 28.47731327 0.76824231 26.23903067 -0.9375 21.5 C-2.73173535 14.52241806 -2.27419224 6.82257673 0 0 Z " fill="#37201A" transform="translate(28,85)"/>
<path d="M0 0 C0.33 0.66 0.66 1.32 1 2 C1.66 2 2.32 2 3 2 C3 2.66 3 3.32 3 4 C4.91503674 4.22281874 6.83216506 4.42771076 8.75 4.625 C9.81734375 4.74101563 10.8846875 4.85703125 11.984375 4.9765625 C15.03792399 5.00029475 16.46162421 4.61420985 19 3 C19.66 3.66 20.32 4.32 21 5 C15.99954806 8.63669232 12.41237425 10.94998137 6 10 C2.5625 8.5 2.5625 8.5 0 7 C0 4.66666667 0 2.33333333 0 0 Z " fill="#382217" transform="translate(183,64)"/>
<path d="M0 0 C0.33 0 0.66 0 1 0 C0.5566188 4.1382245 0.0479205 8.00573018 -1.125 12 C-2.46199998 17.06862679 -2.00629047 21.63225771 0.0625 26.5 C0.371875 26.995 0.68125 27.49 1 28 C-0.32 27.67 -1.64 27.34 -3 27 C-1.29171079 29.10633718 -0.47851584 29.93801608 2.26171875 30.29296875 C3.46248047 30.24076172 3.46248047 30.24076172 4.6875 30.1875 C5.49574219 30.16042969 6.30398437 30.13335937 7.13671875 30.10546875 C8.05904297 30.05326172 8.05904297 30.05326172 9 30 C8.67 30.66 8.34 31.32 8 32 C4.3321465 33.10888594 2.39693866 33.13740184 -1.25 31.875 C-4.44208293 29.69857982 -4.9088388 28.62850257 -6 25 C-6.21405537 18.18080765 -4.64886164 12.2032015 -2 6 C-1.32264783 4.00359361 -0.65161065 2.00495586 0 0 Z " fill="#432F23" transform="translate(138,82)"/>
<path d="M0 0 C1.52519276 0.08937803 3.04681929 0.24537146 4.5625 0.4375 C5.38878906 0.53933594 6.21507813 0.64117187 7.06640625 0.74609375 C7.70449219 0.82988281 8.34257813 0.91367187 9 1 C9 1.66 9 2.32 9 3 C9.78375 3.45375 10.5675 3.9075 11.375 4.375 C14.19297703 6.11946197 14.71047966 7.07146315 16 10 C15.5153125 9.62746094 15.030625 9.25492188 14.53125 8.87109375 C10.92049632 6.3227349 8.21298551 4.5344883 3.6875 4.9375 C0.02759122 5.67010496 0.02759122 5.67010496 -1.875 7.875 C-2.24625 8.57625 -2.6175 9.2775 -3 10 C-3.99 11.485 -3.99 11.485 -5 13 C-5.66 13 -6.32 13 -7 13 C-7.08912219 9.16774573 -6.87867729 5.73437848 -6 2 C-4.7934375 1.7834375 -4.7934375 1.7834375 -3.5625 1.5625 C-1.07896294 1.25864751 -1.07896294 1.25864751 0 0 Z " fill="#452B23" transform="translate(119,50)"/>
<path d="M0 0 C0.66 0.66 1.32 1.32 2 2 C1.87109375 4.609375 1.87109375 4.609375 1.4375 7.75 C0.88646765 12.95976042 1.02060783 15.70967527 4 20 C4.33 20 4.66 20 5 20 C5.66 18.68 6.32 17.36 7 16 C8.32 16.33 9.64 16.66 11 17 C9.63016497 20.16115776 9.0109362 20.9927092 6 23 C0.69124424 23.55299539 0.69124424 23.55299539 -1.875 21.5 C-2.24625 21.005 -2.6175 20.51 -3 20 C-2.34 20 -1.68 20 -1 20 C-1.17200928 19.42024414 -1.34401855 18.84048828 -1.52124023 18.24316406 C-2.27603381 14.70668095 -1.5655467 11.2869495 -1.0625 7.75 C-0.91264648 6.63238281 -0.91264648 6.63238281 -0.75976562 5.4921875 C-0.51319844 3.66054558 -0.25749609 1.83013749 0 0 Z " fill="#4A3124" transform="translate(278,83)"/>
<path d="M0 0 C1.32 0 2.64 0 4 0 C4.88277755 4.51815281 5.10589503 8.77512694 5.0625 13.375 C5.05347656 14.62023437 5.04445312 15.86546875 5.03515625 17.1484375 C5.02355469 18.08945313 5.01195312 19.03046875 5 20 C3.68 20.33 2.36 20.66 1 21 C1.01160156 20.32195312 1.02320313 19.64390625 1.03515625 18.9453125 C1.09708351 12.55795793 0.77018868 6.34030324 0 0 Z " fill="#331F19" transform="translate(147,86)"/>
<path d="M0 0 C3.80921036 7.23749969 5.87182354 14.80150559 5 23 C4.67 23.99 4.34 24.98 4 26 C3.01 26.33 2.02 26.66 1 27 C1.01160156 25.86820313 1.02320313 24.73640625 1.03515625 23.5703125 C1.04453454 22.08854331 1.0536347 20.60677235 1.0625 19.125 C1.07087891 18.37863281 1.07925781 17.63226563 1.08789062 16.86328125 C1.20688084 12.80154422 1.20688084 12.80154422 0 9 C-0.06950541 7.45976004 -0.08452357 5.91665012 -0.0625 4.375 C-0.05347656 3.55773437 -0.04445313 2.74046875 -0.03515625 1.8984375 C-0.02355469 1.27195312 -0.01195312 0.64546875 0 0 Z " fill="#311E1C" transform="translate(286,74)"/>
<path d="M0 0 C1.8871875 0.061875 1.8871875 0.061875 3.8125 0.125 C3.8125 0.455 3.8125 0.785 3.8125 1.125 C2.8225 1.455 1.8325 1.785 0.8125 2.125 C1.65554687 2.11339844 2.49859375 2.10179687 3.3671875 2.08984375 C4.46289062 2.08082031 5.55859375 2.07179687 6.6875 2.0625 C7.77804688 2.05089844 8.86859375 2.03929687 9.9921875 2.02734375 C12.8125 2.125 12.8125 2.125 14.8125 3.125 C14.4825 3.785 14.1525 4.445 13.8125 5.125 C13.8125 5.785 13.8125 6.445 13.8125 7.125 C13.19375 6.795 12.575 6.465 11.9375 6.125 C7.01270357 4.54906514 1.32618594 4.01914832 -3.49609375 6.140625 C-4.05425781 6.46546875 -4.61242187 6.7903125 -5.1875 7.125 C-5.1875 6.465 -5.1875 5.805 -5.1875 5.125 C-5.8475 5.125 -6.5075 5.125 -7.1875 5.125 C-7.1875 4.135 -7.1875 3.145 -7.1875 2.125 C-4.09861478 0.06574319 -3.47814073 -0.1140374 0 0 Z " fill="#482F1F" transform="translate(161.1875,55.875)"/>
<path d="M0 0 C0.99 0 1.98 0 3 0 C2.87431641 1.30324219 2.87431641 1.30324219 2.74609375 2.6328125 C2.64425781 3.78523438 2.54242188 4.93765625 2.4375 6.125 C2.33308594 7.26195313 2.22867188 8.39890625 2.12109375 9.5703125 C2.00391984 12.88897993 2.3344928 15.7562686 3 19 C-1.17391304 17.60869565 -1.17391304 17.60869565 -3 15 C-3.67701581 9.24536565 -2.19223553 5.20655938 0 0 Z " fill="#4A3229" transform="translate(101,72)"/>
<path d="M0 0 C-0.45142775 1.77260631 -0.91140523 3.5430368 -1.375 5.3125 C-1.63023438 6.29863281 -1.88546875 7.28476562 -2.1484375 8.30078125 C-3 11 -3 11 -5 14 C-5.66 14 -6.32 14 -7 14 C-7.99 14.495 -7.99 14.495 -9 15 C-9 13.35 -9 11.7 -9 10 C-8.34 10 -7.68 10 -7 10 C-7.33 9.01 -7.66 8.02 -8 7 C-7.34 6.34 -6.68 5.68 -6 5 C-6 4.01 -6 3.02 -6 2 C-3 0 -3 0 0 0 Z " fill="#392117" transform="translate(90,54)"/>
<path d="M0 0 C0.99 0.66 1.98 1.32 3 2 C3 2.99 3 3.98 3 5 C3.66 4.67 4.32 4.34 5 4 C5 7.63 5 11.26 5 15 C5.66 15.33 6.32 15.66 7 16 C6.34 17.32 5.68 18.64 5 20 C4.34 16.04 3.68 12.08 3 8 C1.35 7.67 -0.3 7.34 -2 7 C-1.125 2.25 -1.125 2.25 0 0 Z " fill="#2F1205" transform="translate(144,70)"/>
<path d="M0 0 C0.66 0 1.32 0 2 0 C2.03738281 0.94101563 2.07476563 1.88203125 2.11328125 2.8515625 C2.17902344 4.09679687 2.24476562 5.34203125 2.3125 6.625 C2.37050781 7.85476562 2.42851562 9.08453125 2.48828125 10.3515625 C3.02146955 14.153073 4.1726374 16.6588169 6 20 C6 20.66 6 21.32 6 22 C3 21 3 21 1.3125 18.3125 C-1.00939511 12.55613504 -0.22779743 6.08303506 0 0 Z " fill="#543725" transform="translate(29,88)"/>
<path d="M0 0 C0 0.66 0 1.32 0 2 C1.32 2.66 2.64 3.32 4 4 C-0.62 4.66 -5.24 5.32 -10 6 C-10 5.34 -10 4.68 -10 4 C-10.99 3.67 -11.98 3.34 -13 3 C-4.57142857 -0.42857143 -4.57142857 -0.42857143 0 0 Z " fill="#482D20" transform="translate(14,59)"/>
<path d="M0 0 C0.33 0 0.66 0 1 0 C1.02725341 1.7290774 1.04650987 3.45828176 1.0625 5.1875 C1.07410156 6.15042969 1.08570313 7.11335938 1.09765625 8.10546875 C1.00486622 10.85576513 0.62111685 13.32479591 0 16 C-0.33 15.01 -0.66 14.02 -1 13 C-1.66 13 -2.32 13 -3 13 C-3.27131956 7.66404866 -3.4266889 4.38616179 0 0 Z " fill="#301D14" transform="translate(316,51)"/>
<path d="M0 0 C0.66 0.33 1.32 0.66 2 1 C2.44921875 2.8125 2.44921875 2.8125 2.6875 5 C2.77386719 5.721875 2.86023438 6.44375 2.94921875 7.1875 C2.96597656 7.785625 2.98273438 8.38375 3 9 C2.67 9.33 2.34 9.66 2 10 C6.12973628 9.43260132 6.12973628 9.43260132 10 8 C8.5511811 11.74278215 8.5511811 11.74278215 6.125 12.875 C3.42295083 13.03394407 2.2387164 12.50463628 0 11 C-0.64453125 8.90625 -0.64453125 8.90625 -0.8125 6.5 C-0.88082031 5.7059375 -0.94914062 4.911875 -1.01953125 4.09375 C-1 2 -1 2 0 0 Z " fill="#47352D" transform="translate(74,62)"/>
<path d="M0 0 C0.66 0 1.32 0 2 0 C2 0.66 2 1.32 2 2 C2.66 2 3.32 2 4 2 C4 2.66 4 3.32 4 4 C4.99 4 5.98 4 7 4 C7 4.66 7 5.32 7 6 C8.98 6 10.96 6 13 6 C11 8 11 8 7.125 8.375 C4.00348468 8.29539852 3.11736707 8.08015312 0.4375 6.25 C-1 4 -1 4 -0.75 1.75 C-0.5025 1.1725 -0.255 0.595 0 0 Z " fill="#432E25" transform="translate(230,68)"/>
<path d="M0 0 C0.33 0.99 0.66 1.98 1 3 C3.01508358 3.73323796 3.01508358 3.73323796 5 4 C5.33 3.01 5.66 2.02 6 1 C6.33 1.99 6.66 2.98 7 4 C6.67 4.66 6.34 5.32 6 6 C6.66 6.33 7.32 6.66 8 7 C5 9 5 9 2.3125 8.625 C1.549375 8.41875 0.78625 8.2125 0 8 C0 5.33333333 0 2.66666667 0 0 Z " fill="#3F2F2C" transform="translate(306,64)"/>
<path d="M0 0 C1.33333333 0.66666667 2.66666667 1.33333333 4 2 C3.69611836 4.93752254 3.19330344 5.84080893 0.875 7.75 C-2.64656468 9.28111508 -5.19615057 9.35885372 -9 9 C-9.66 8.34 -10.32 7.68 -11 7 C-8.36 7 -5.72 7 -3 7 C-2.690625 6.21625 -2.38125 5.4325 -2.0625 4.625 C-1 2 -1 2 0 0 Z " fill="#2F160C" transform="translate(147,104)"/>
<path d="M0 0 C1.65 0.33 3.3 0.66 5 1 C5 1.66 5 2.32 5 3 C5.99 3.33 6.98 3.66 8 4 C6 5 6 5 3.0625 5.3125 C-0.1013947 5.71468003 -0.1013947 5.71468003 -1.875 8.0625 C-2.24625 8.701875 -2.6175 9.34125 -3 10 C-2.67 7.69 -2.34 5.38 -2 3 C-1.34 3 -0.68 3 0 3 C0 2.01 0 1.02 0 0 Z " fill="#432B1F" transform="translate(320,44)"/>
<path d="M0 0 C0.598125 0.20625 1.19625 0.4125 1.8125 0.625 C1.8125 1.285 1.8125 1.945 1.8125 2.625 C1.1525 2.625 0.4925 2.625 -0.1875 2.625 C-0.1875 3.285 -0.1875 3.945 -0.1875 4.625 C-0.8475 4.625 -1.5075 4.625 -2.1875 4.625 C-2.8475 7.595 -3.5075 10.565 -4.1875 13.625 C-4.5175 13.625 -4.8475 13.625 -5.1875 13.625 C-5.26832094 11.66733719 -5.32660778 9.70873272 -5.375 7.75 C-5.40980469 6.65945312 -5.44460938 5.56890625 -5.48046875 4.4453125 C-5.38378906 3.51460938 -5.28710938 2.58390625 -5.1875 1.625 C-2.1875 -0.375 -2.1875 -0.375 0 0 Z " fill="#331505" transform="translate(281.1875,75.375)"/>
<path d="M0 0 C0.33 0 0.66 0 1 0 C0.25403037 7.4596963 -1.36746129 14.68951218 -3 22 C-3.33 22 -3.66 22 -4 22 C-5.26486393 15.56069271 -4.6101638 11.92775518 -2 6 C-1.32264783 4.00359361 -0.65161065 2.00495586 0 0 Z " fill="#573A28" transform="translate(138,82)"/>
<path d="M0 0 C3.04492309 1.01497436 4.0298639 1.5821057 6 4 C6.6875 6.1875 6.6875 6.1875 7 8 C6.01 8.495 6.01 8.495 5 9 C4.34227572 12.02934491 4.34227572 12.02934491 4 15 C3.67 15 3.34 15 3 15 C2 10 1 5 0 0 Z " fill="#382118" transform="translate(272,68)"/>
<path d="M0 0 C0.33 1.32 0.66 2.64 1 4 C-3.30769231 7.07692308 -3.30769231 7.07692308 -6.8125 6.6875 C-7.534375 6.460625 -8.25625 6.23375 -9 6 C-8.34 5.67 -7.68 5.34 -7 5 C-6.67 4.01 -6.34 3.02 -6 2 C-4.7934375 1.7834375 -4.7934375 1.7834375 -3.5625 1.5625 C-1.07896294 1.25864751 -1.07896294 1.25864751 0 0 Z " fill="#32180C" transform="translate(84,66)"/>
<path d="M0 0 C0.33 0 0.66 0 1 0 C1.02721176 1.89575251 1.04649136 3.79161979 1.0625 5.6875 C1.07410156 6.74324219 1.08570313 7.79898438 1.09765625 8.88671875 C1.00865425 11.72410262 0.64939838 14.2438919 0 17 C-0.66 16.67 -1.32 16.34 -2 16 C-1.85890014 13.89551062 -1.71195825 11.7914123 -1.5625 9.6875 C-1.48128906 8.51574219 -1.40007813 7.34398438 -1.31640625 6.13671875 C-1 3 -1 3 0 0 Z " fill="#21150E" transform="translate(28,85)"/>
<path d="M0 0 C1.95825873 -0.02694851 3.91662226 -0.04637218 5.875 -0.0625 C6.96554688 -0.07410156 8.05609375 -0.08570313 9.1796875 -0.09765625 C12 0 12 0 14 1 C13.67 1.66 13.34 2.32 13 3 C13 3.66 13 4.32 13 5 C12.360625 4.690625 11.72125 4.38125 11.0625 4.0625 C7.07950896 2.68064597 3.18349151 2.3463457 -1 2 C-0.67 1.34 -0.34 0.68 0 0 Z " fill="#4D382E" transform="translate(162,58)"/>
<path d="M0 0 C0.33 0.66 0.66 1.32 1 2 C2.32 1.67 3.64 1.34 5 1 C4.34 2.32 3.68 3.64 3 5 C2.34 5 1.68 5 1 5 C0.67 6.65 0.34 8.3 0 10 C-0.66 10 -1.32 10 -2 10 C-2.33 10.99 -2.66 11.98 -3 13 C-2.45144652 8.428721 -1.58255197 4.32564205 0 0 Z " fill="#3A2923" transform="translate(136,77)"/>
<path d="M0 0 C0 0.33 0 0.66 0 1 C-0.886875 1.226875 -1.77375 1.45375 -2.6875 1.6875 C-6.44944135 3.17808053 -8.28186152 5.05534998 -11 8 C-11.99 8.495 -11.99 8.495 -13 9 C-13.25 6.6875 -13.25 6.6875 -13 4 C-9.05411014 0.19017531 -5.30604752 -0.11791217 0 0 Z " fill="#4D2D1C" transform="translate(62,52)"/>
<path d="M0 0 C0.33 0 0.66 0 1 0 C1.33 4.29 1.66 8.58 2 13 C1.01 12.67 0.02 12.34 -1 12 C-1.02687279 10.18757948 -1.04633715 8.37504767 -1.0625 6.5625 C-1.07410156 5.55316406 -1.08570313 4.54382813 -1.09765625 3.50390625 C-1 1 -1 1 0 0 Z " fill="#291B16" transform="translate(275,90)"/>
<path d="M0 0 C2.40039042 4.67975275 4 8.67304271 4 14 C3.34 14 2.68 14 2 14 C-0.3992233 9.35150485 -0.19957409 5.08913926 0 0 Z " fill="#2B1812" transform="translate(286,74)"/>
<path d="M0 0 C0.33 0 0.66 0 1 0 C1.22281874 1.91503674 1.42771076 3.83216506 1.625 5.75 C1.74101563 6.81734375 1.85703125 7.8846875 1.9765625 8.984375 C2.00029475 12.03792399 1.61420985 13.46162421 0 16 C-0.144375 14.783125 -0.28875 13.56625 -0.4375 12.3125 C-0.73194764 9.86165638 -1.09978023 7.59180816 -1.6875 5.1875 C-2 3 -2 3 0 0 Z " fill="#3D2C26" transform="translate(114,72)"/>
<path d="M0 0 C0.33 0.66 0.66 1.32 1 2 C1.66 2 2.32 2 3 2 C3 2.66 3 3.32 3 4 C5.97 4.495 5.97 4.495 9 5 C8.67 5.66 8.34 6.32 8 7 C6.35 6.67 4.7 6.34 3 6 C2.67 6.66 2.34 7.32 2 8 C1.34 7.34 0.68 6.68 0 6 C0 4 0 2 0 0 Z " fill="#513122" transform="translate(183,64)"/>
<path d="M0 0 C0.33 0 0.66 0 1 0 C1.66 2.64 2.32 5.28 3 8 C4.65 8.33 6.3 8.66 8 9 C8 9.99 8 10.98 8 12 C5.6875 12.25 5.6875 12.25 3 12 C1.1875 10.5 1.1875 10.5 0 8 C-0.23884872 5.27920155 -0.13709297 2.74185932 0 0 Z " fill="#291711" transform="translate(99,82)"/>
<path d="M0 0 C0.66 0 1.32 0 2 0 C5 5.625 5 5.625 5 9 C3 9 3 9 1.4375 7.6875 C0 6 0 6 -1 3 C-0.67 2.01 -0.34 1.02 0 0 Z " fill="#44291C" transform="translate(333,60)"/>
<path d="M0 0 C2.2477975 2.05233685 3.0022242 3.00667261 4 6 C4.06802967 7.72795352 4.08495645 9.45835365 4.0625 11.1875 C4.05347656 12.08855469 4.04445312 12.98960938 4.03515625 13.91796875 C4.02355469 14.60503906 4.01195312 15.29210937 4 16 C3.67 16 3.34 16 3 16 C1.91681831 10.6787385 0.847126 5.36513131 0 0 Z " fill="#27110C" transform="translate(135,58)"/>
<path d="M0 0 C1.52519276 0.08937803 3.04681929 0.24537146 4.5625 0.4375 C5.38878906 0.53933594 6.21507813 0.64117187 7.06640625 0.74609375 C7.70449219 0.82988281 8.34257813 0.91367187 9 1 C9 1.33 9 1.66 9 2 C8.25234375 2.12117188 7.5046875 2.24234375 6.734375 2.3671875 C5.74953125 2.53476562 4.7646875 2.70234375 3.75 2.875 C2.77546875 3.03742187 1.8009375 3.19984375 0.796875 3.3671875 C-1.77264117 3.94855848 -3.72071056 4.70840265 -6 6 C-6 4.68 -6 3.36 -6 2 C-4.7934375 1.7834375 -4.7934375 1.7834375 -3.5625 1.5625 C-1.07896294 1.25864751 -1.07896294 1.25864751 0 0 Z " fill="#4F301F" transform="translate(119,50)"/>
<path d="M0 0 C0.66 0.66 1.32 1.32 2 2 C2.66 1.34 3.32 0.68 4 0 C3.66666667 1.33333333 3.33333333 2.66666667 3 4 C2.87625 4.721875 2.7525 5.44375 2.625 6.1875 C2.41875 6.785625 2.2125 7.38375 2 8 C1.01 8.33 0.02 8.66 -1 9 C-0.67 6.03 -0.34 3.06 0 0 Z " fill="#361E17" transform="translate(103,64)"/>
<path d="M0 0 C0 0.66 0 1.32 0 2 C-1.11375 2.433125 -1.11375 2.433125 -2.25 2.875 C-4.56739797 3.82302644 -6.77917115 4.84845911 -9 6 C-8.6875 4.125 -8.6875 4.125 -8 2 C-4.77208445 -0.1519437 -3.71599191 -0.20086443 0 0 Z " fill="#4E2B17" transform="translate(297,54)"/>
<path d="M0 0 C1.32 0 2.64 0 4 0 C4.3367697 4.93928888 4.16130459 5.78492722 1 10 C0.67 6.7 0.34 3.4 0 0 Z " fill="#3F271F" transform="translate(147,86)"/>
<path d="M0 0 C2.02350324 3.03525486 2.32124018 4.19426202 2.625 7.6875 C2.69976563 8.49574219 2.77453125 9.30398437 2.8515625 10.13671875 C2.90054687 10.75160156 2.94953125 11.36648437 3 12 C2.34 12 1.68 12 1 12 C0.03929566 9.11788698 -0.10581883 7.30149956 -0.0625 4.3125 C-0.05347656 3.50425781 -0.04445313 2.69601563 -0.03515625 1.86328125 C-0.02355469 1.24839844 -0.01195313 0.63351563 0 0 Z " fill="#392316" transform="translate(28,76)"/>
<path d="M0 0 C0.99 0 1.98 0 3 0 C3.33 2.64 3.66 5.28 4 8 C2.35 7.01 0.7 6.02 -1 5 C-0.67 3.35 -0.34 1.7 0 0 Z " fill="#452A22" transform="translate(284,70)"/>
<path d="M0 0 C1.32 1.32 2.64 2.64 4 4 C1.1353288 5.4323356 -0.91405073 4.57861549 -4 4 C-4.66 4 -5.32 4 -6 4 C-6 3.34 -6 2.68 -6 2 C-4.02 2 -2.04 2 0 2 C0 1.34 0 0.68 0 0 Z " fill="#422C24" transform="translate(263,57)"/>
<path d="M0 0 C0.33 0.99 0.66 1.98 1 3 C3.01508358 3.73323796 3.01508358 3.73323796 5 4 C5.33 3.01 5.66 2.02 6 1 C6.33 1.99 6.66 2.98 7 4 C5.02 4.99 5.02 4.99 3 6 C2.01 5.34 1.02 4.68 0 4 C0 2.68 0 1.36 0 0 Z " fill="#4A2C1F" transform="translate(306,64)"/>
<path d="M0 0 C1.32 0 2.64 0 4 0 C3.6875 1.875 3.6875 1.875 3 4 C2.01 4.66 1.02 5.32 0 6 C0 4.02 0 2.04 0 0 Z " fill="#311C12" transform="translate(0,63)"/>
<path d="M0 0 C0.66 0 1.32 0 2 0 C2 0.66 2 1.32 2 2 C2.66 2 3.32 2 4 2 C4.33 1.34 4.66 0.68 5 0 C4.67 1.98 4.34 3.96 4 6 C2.68 5.34 1.36 4.68 0 4 C0 2.68 0 1.36 0 0 Z " fill="#2E1308" transform="translate(146,67)"/>
<path d="M0 0 C0.66 0 1.32 0 2 0 C2 0.66 2 1.32 2 2 C2.99 2.33 3.98 2.66 5 3 C4.34 4.32 3.68 5.64 3 7 C2.34 6.67 1.68 6.34 1 6 C0.375 2.9375 0.375 2.9375 0 0 Z " fill="#371F14" transform="translate(26,68)"/>
<path d="M0 0 C4.20626034 1.50223584 5.73900021 4.28550034 8 8 C3.79373966 6.49776416 2.26099979 3.71449966 0 0 Z " fill="#3B2318" transform="translate(173,60)"/>
</svg>
